<svg xmlns="http://www.w3.org/2000/svg" viewBox="0 0 512 512" width="512" height="512">
  <defs>
    <!-- Gradient sombre élégant -->
    <linearGradient id="darkGradient" x1="0%" y1="0%" x2="100%" y2="100%">
      <stop offset="0%" style="stop-color:#1E1B4B"/>
      <stop offset="100%" style="stop-color:#312E81"/>
    </linearGradient>
    
    <!-- Gradient cyan-vert -->
    <linearGradient id="tealGradient" x1="0%" y1="0%" x2="100%" y2="100%">
      <stop offset="0%" style="stop-color:#14B8A6"/>
      <stop offset="100%" style="stop-color:#06B6D4"/>
    </linearGradient>
    
    <!-- Gradient zone claire -->
    <linearGradient id="lightZone" x1="0%" y1="0%" x2="100%" y2="100%">
      <stop offset="0%" style="stop-color:#F0FDFA"/>
      <stop offset="100%" style="stop-color:#CCFBF1"/>
    </linearGradient>
    
    <!-- Glow effect -->
    <filter id="glow" x="-50%" y="-50%" width="200%" height="200%">
      <feGaussianBlur stdDeviation="8" result="coloredBlur"/>
      <feMerge>
        <feMergeNode in="coloredBlur"/>
        <feMergeNode in="SourceGraphic"/>
      </feMerge>
    </filter>
    
    <filter id="shadow" x="-20%" y="-20%" width="140%" height="140%">
      <feDropShadow dx="0" dy="8" stdDeviation="16" flood-color="#0F172A" flood-opacity="0.4"/>
    </filter>
  </defs>
  
  <!-- Fond principal -->
  <rect x="32" y="32" width="448" height="448" rx="96" ry="96" fill="url(#darkGradient)" filter="url(#shadow)"/>
  
  <!-- Motif de points subtil -->
  <g opacity="0.1">
    <circle cx="100" cy="100" r="2" fill="white"/>
    <circle cx="150" cy="100" r="2" fill="white"/>
    <circle cx="200" cy="100" r="2" fill="white"/>
    <circle cx="250" cy="100" r="2" fill="white"/>
    <circle cx="300" cy="100" r="2" fill="white"/>
    <circle cx="350" cy="100" r="2" fill="white"/>
    <circle cx="400" cy="100" r="2" fill="white"/>
    <circle cx="100" cy="150" r="2" fill="white"/>
    <circle cx="150" cy="150" r="2" fill="white"/>
    <circle cx="200" cy="150" r="2" fill="white"/>
    <circle cx="250" cy="150" r="2" fill="white"/>
    <circle cx="300" cy="150" r="2" fill="white"/>
    <circle cx="350" cy="150" r="2" fill="white"/>
    <circle cx="400" cy="150" r="2" fill="white"/>
    <circle cx="100" cy="200" r="2" fill="white"/>
    <circle cx="150" cy="200" r="2" fill="white"/>
    <circle cx="200" cy="200" r="2" fill="white"/>
    <circle cx="250" cy="200" r="2" fill="white"/>
    <circle cx="300" cy="200" r="2" fill="white"/>
    <circle cx="350" cy="200" r="2" fill="white"/>
    <circle cx="400" cy="200" r="2" fill="white"/>
  </g>
  
  <!-- Symbole central - Grille organisée stylisée comme un nid -->
  <g transform="translate(256, 256)">
    <!-- Cadre extérieur avec coins arrondis - représente le "nid" -->
    <rect x="-140" y="-140" width="280" height="280" rx="24" ry="24" fill="none" stroke="url(#tealGradient)" stroke-width="4" opacity="0.6"/>
    
    <!-- Zone 1 - Haut gauche -->
    <rect x="-125" y="-125" width="115" height="85" rx="12" ry="12" fill="url(#lightZone)" filter="url(#glow)"/>
    
    <!-- Zone 2 - Haut droite -->
    <rect x="5" y="-125" width="120" height="55" rx="12" ry="12" fill="url(#tealGradient)" opacity="0.9"/>
    
    <!-- Zone 3 - Milieu droite -->
    <rect x="5" y="-55" width="120" height="85" rx="12" ry="12" fill="url(#lightZone)"/>
    
    <!-- Zone 4 - Bas gauche -->
    <rect x="-125" y="-25" width="70" height="150" rx="12" ry="12" fill="url(#tealGradient)" opacity="0.8"/>
    
    <!-- Zone 5 - Bas milieu -->
    <rect x="-40" y="45" width="80" height="80" rx="12" ry="12" fill="url(#lightZone)"/>
    
    <!-- Zone 6 - Bas droite -->
    <rect x="55" y="45" width="70" height="80" rx="12" ry="12" fill="url(#tealGradient)" opacity="0.7"/>
    
    <!-- Petites icônes/points dans les zones -->
    <circle cx="-100" cy="-95" r="8" fill="#14B8A6" opacity="0.8"/>
    <circle cx="-75" cy="-95" r="8" fill="#14B8A6" opacity="0.6"/>
    <circle cx="-50" cy="-95" r="8" fill="#14B8A6" opacity="0.4"/>
    
    <circle cx="30" cy="-100" r="6" fill="white" opacity="0.9"/>
    <circle cx="50" cy="-100" r="6" fill="white" opacity="0.7"/>
    <circle cx="70" cy="-100" r="6" fill="white" opacity="0.5"/>
    <circle cx="90" cy="-100" r="6" fill="white" opacity="0.3"/>
    
    <circle cx="30" cy="-25" r="6" fill="#14B8A6" opacity="0.7"/>
    <circle cx="50" cy="-25" r="6" fill="#14B8A6" opacity="0.5"/>
    
    <circle cx="-100" cy="15" r="6" fill="white" opacity="0.9"/>
    <circle cx="-100" cy="35" r="6" fill="white" opacity="0.7"/>
    <circle cx="-100" cy="55" r="6" fill="white" opacity="0.5"/>
    <circle cx="-100" cy="75" r="6" fill="white" opacity="0.3"/>
    
    <circle cx="-15" cy="75" r="6" fill="#14B8A6" opacity="0.7"/>
    <circle cx="5" cy="75" r="6" fill="#14B8A6" opacity="0.5"/>
    <circle cx="25" cy="75" r="6" fill="#14B8A6" opacity="0.3"/>
    
    <circle cx="80" cy="75" r="6" fill="white" opacity="0.8"/>
    <circle cx="100" cy="75" r="6" fill="white" opacity="0.5"/>
  </g>
  
  <!-- Badge "L" stylisé -->
  <circle cx="415" cy="97" r="32" fill="url(#tealGradient)" filter="url(#glow)"/>
  <text x="415" y="107" font-family="Arial Black, sans-serif" font-size="32" font-weight="900" fill="white" text-anchor="middle">L</text>
  
</svg>
